<?xml version="1.0" encoding="UTF-8" standalone="no"?>
<!-- Created with Inkscape (http://www.inkscape.org/) -->

<svg
   width="210mm"
   height="297mm"
   viewBox="0 0 210 297"
   version="1.1"
   id="svg5"
   xml:space="preserve"
   inkscape:version="1.2 (dc2aedaf03, 2022-05-15)"
   sodipodi:docname="CONTOSO LOCO - VECTORIZADO.svg"
   inkscape:export-filename="CONTOSO LOCO - VECTORIZADO.png"
   inkscape:export-xdpi="96"
   inkscape:export-ydpi="96"
   xmlns:inkscape="http://www.inkscape.org/namespaces/inkscape"
   xmlns:sodipodi="http://sodipodi.sourceforge.net/DTD/sodipodi-0.dtd"
   xmlns="http://www.w3.org/2000/svg"
   xmlns:svg="http://www.w3.org/2000/svg"><sodipodi:namedview
     id="namedview7"
     pagecolor="#ffffff"
     bordercolor="#000000"
     borderopacity="0.25"
     inkscape:showpageshadow="2"
     inkscape:pageopacity="0.0"
     inkscape:pagecheckerboard="0"
     inkscape:deskcolor="#d1d1d1"
     inkscape:document-units="mm"
     showgrid="false"
     inkscape:zoom="0.46057099"
     inkscape:cx="273.57346"
     inkscape:cy="588.40007"
     inkscape:window-width="1366"
     inkscape:window-height="697"
     inkscape:window-x="-8"
     inkscape:window-y="-8"
     inkscape:window-maximized="1"
     inkscape:current-layer="layer1" /><defs
     id="defs2" /><g
     inkscape:label="Capa 1"
     inkscape:groupmode="layer"
     id="layer1"><path
       style="fill:#000000;stroke-width:0.483398"
       d="m 91.580601,240.926 c -19.60635,-2.42018 -36.470214,-9.53039 -52.209338,-22.0127 -3.158732,-2.50507 -10.150614,-9.85525 -13.500518,-14.19233 -3.366094,-4.35801 -8.382397,-12.72846 -10.348293,-17.2676 -7.3449173,-16.9591 -8.6932052,-36.80184 -3.651183,-53.73452 3.760442,-12.62871 10.075394,-23.5592 19.767666,-34.215572 5.942656,-6.53377 17.003767,-14.590159 26.746886,-19.481198 27.27724,-13.693109 61.189559,-14.069335 89.039229,-0.987739 7.70429,3.618856 11.22762,5.730083 17.68708,10.598384 15.34989,11.568735 26.28265,27.301405 31.11454,44.775035 1.88355,6.81146 2.31988,9.77749 2.66857,18.14116 0.51969,12.46501 -1.32362,22.75229 -6.12696,34.19354 -1.15036,2.74003 -5.8238,11.13596 -7.93727,14.25935 -12.63762,18.6768 -34.33266,32.92764 -58.01217,38.10658 -11.34622,2.48155 -24.40352,3.15506 -35.238239,1.81761 z m 27.606309,-4.3438 c 14.88143,-2.35707 27.15722,-7.04443 38.79564,-14.81364 3.47607,-2.32049 3.94812,-2.85233 2.79837,-3.15283 -0.34979,-0.0915 -13.34315,-0.0619 -28.87412,0.0658 -15.53099,0.12763 -40.601894,0.12854 -55.713131,9.8e-4 -15.111238,-0.12619 -27.875644,-0.15405 -28.36536,-0.0613 -1.55272,0.29375 -0.95229,1.15229 2.23803,3.20057 17.72219,11.37816 36.801405,16.58829 57.927041,15.81856 3.21815,-0.11717 8.25524,-0.59398 11.19353,-1.05935 z M 94.452737,213.8346 c 1.256259,-3.59743 1.807066,-6.5331 2.364648,-12.60314 0.266726,-2.90491 0.715495,-6.68047 0.99704,-8.39019 0.671993,-4.08101 0.651521,-11.42027 -0.04368,-15.59814 -0.305587,-1.83599 -0.659728,-3.95822 -0.787289,-4.71601 -0.46392,-2.75535 -10.812957,-8.50359 -15.287109,-8.49105 -4.495482,0.0126 -9.637979,1.90073 -16.512451,6.0627 -5.818997,3.52294 -8.804014,4.65431 -14.912644,5.65215 -2.504036,0.40902 -5.336726,1.03936 -6.294885,1.40076 -2.276795,0.85869 -2.458135,0.83038 -1.405582,-0.21942 0.840931,-0.83874 2.855018,-1.40304 10.726859,-3.0053 3.570513,-0.72677 5.02022,-1.45866 12.536562,-6.32934 1.858035,-1.20402 3.539878,-2.18912 3.737422,-2.18912 0.197545,0 1.041809,-0.43875 1.876111,-0.975 2.10267,-1.3515 1.220985,-2.08204 -1.713607,-1.41983 -11.18113,2.52306 -16.794819,2.96263 -28.393184,2.22333 -5.178102,-0.33007 -6.221841,-0.26651 -9.0737,0.55198 -3.031313,0.87003 -3.172529,0.87507 -2.379987,0.0847 1.287051,-1.28373 3.205904,-1.8363 7.639165,-2.19981 l 4.048606,-0.33194 -3.613526,-1.9691 c -5.98606,-3.2619 -13.342773,-10.84635 -15.786634,-16.27529 -1.889956,-4.19845 -1.18699,-4.54513 1.103824,-0.54433 1.119347,1.95488 2.264136,3.54036 2.543975,3.52327 0.900085,-0.055 3.478373,-7.75145 4.117331,-12.2907 0.376318,-2.67344 0.399989,-2.70769 0.793614,-1.14818 0.523236,2.07296 0.0897,4.92348 -1.37207,9.01956 -0.643494,1.80324 -1.321717,4.19195 -1.507158,5.30818 -0.336329,2.02449 -0.327866,2.03855 3.394722,5.63951 4.775176,4.61923 8.074496,6.52292 13.231909,7.63483 6.573155,1.41715 17.344378,0.99047 22.901872,-0.90715 0.648241,-0.22121 2.380391,-0.55081 3.849228,-0.73217 4.599958,-0.56794 4.08581,-1.44496 -1.246762,-2.12662 -4.039538,-0.5164 -9.110616,-2.63621 -12.617365,-5.27438 -3.17753,-2.39045 -6.129826,-3.75219 -8.984434,-4.14404 -3.639322,-0.49956 -4.055839,-1.06946 -0.792963,-1.08493 3.260712,-0.0144 6.670805,1.26077 9.631428,3.60463 4.049643,3.20603 9.403293,5.36509 15.063643,6.07502 2.149272,0.26947 4.136723,0.65495 4.416571,0.85644 0.27983,0.20136 1.310135,0.50646 2.289567,0.67772 0.979432,0.17112 2.353192,0.50458 3.052774,0.74074 2.105089,0.71061 7.558047,1.23326 8.067653,0.7733 0.494025,-0.44595 -1.608859,-5.5153 -5.055045,-12.18613 -3.322777,-6.43197 -8.384157,-11.5435 -16.585826,-16.75013 -6.592282,-4.18495 -12.78601,-6.60848 -23.178014,-9.06926 -1.324155,-0.31353 -2.281924,-0.75358 -2.12839,-0.97781 0.153459,-0.22416 -0.99542,-1.45919 -2.553229,-2.74433 -3.152201,-2.60053 -3.839832,-3.96568 -1.019367,-2.02384 4.01649,2.76536 6.981852,4.26945 10.26023,5.20425 1.894771,0.54028 5.391187,1.5289 7.769804,2.19693 6.835421,1.91968 13.334966,5.47454 19.306597,10.55953 1.9022,1.61977 3.602431,2.94504 3.778272,2.94504 1.175494,0 -1.650977,-5.20104 -6.988443,-12.85955 -2.200534,-3.15747 -4.375641,-6.32939 -4.833556,-7.04869 -1.586922,-2.49285 -6.877747,-8.35511 -10.968436,-12.15313 -2.260727,-2.09897 -4.499206,-4.47568 -4.974396,-5.28161 -1.567363,-2.65812 -2.588154,-6.166839 -2.189985,-7.527463 0.350259,-1.196884 0.455496,-1.078065 1.516335,1.711703 1.776511,4.671773 2.516321,5.67668 7.857608,10.67289 l 5.000198,4.67717 1.897346,-0.90709 c 3.746508,-1.79114 7.197686,-8.56056 6.547454,-12.842732 -0.265009,-1.745246 -0.197289,-2.137993 0.318925,-1.850024 1.011859,0.564503 0.409517,7.800006 -0.862595,10.362076 -0.558683,1.12518 -2.192462,3.07912 -3.630645,4.34212 -1.438165,1.26298 -2.615199,2.48174 -2.615608,2.70831 -4.1e-4,0.22651 0.800607,1.29474 1.780039,2.37365 0.979432,1.07889 1.78078,2.08399 1.78078,2.23353 0,0.14956 0.759817,1.25146 1.688454,2.44868 0.928656,1.19725 2.70308,3.68999 3.943174,5.53938 1.240095,1.84944 2.647413,3.91614 3.127379,4.59272 1.116003,1.57316 3.941127,6.8043 5.748954,10.64513 0.772801,1.6419 2.282332,4.32861 3.354482,5.9705 2.780335,4.25771 8.773309,11.2521 9.641128,11.2521 1.328168,0 2.406015,-9.57503 1.536556,-13.65022 -1.809053,-8.47911 -2.314214,-9.90396 -5.41865,-15.28376 -4.719936,-8.17944 -7.473928,-16.88734 -7.355453,-23.2574 0.06512,-3.50277 -0.824629,-6.954342 -2.960448,-11.484019 -2.219583,-4.707275 -3.084148,-8.35863 -2.59414,-10.955863 l 0.303286,-1.607427 0.396923,1.377789 c 0.218309,0.757813 0.724716,2.573128 1.125362,4.034091 0.70592,2.574135 3.959299,9.806129 4.764002,10.589989 0.647149,0.630385 1.446178,-2.346709 2.069247,-7.709551 0.543925,-4.681857 0.459631,-7.064696 -0.35022,-9.899765 -0.307168,-1.075404 -0.272088,-1.100499 0.554102,-0.395767 1.579473,1.347322 2.098574,6.904605 1.292255,13.834755 -1.001272,8.605398 -1.219504,17.174738 -0.494124,19.398768 2.00808,6.15664 3.471963,8.93299 7.385781,14.0077 0.876649,1.13669 2.333216,3.25508 3.236746,4.70752 0.90356,1.45241 1.8511,2.6408 2.10572,2.6408 0.25471,0 1.04069,-1.02933 1.74696,-2.28734 0.70622,-1.25805 2.40583,-3.78978 3.77687,-5.62607 3.49671,-4.68329 4.48775,-6.39941 5.9208,-10.25284 1.58388,-4.25898 2.03758,-10.03433 1.26078,-16.04932 -1.43844,-11.138657 -1.11807,-19.498132 0.80237,-20.936823 1.17038,-0.876793 1.35393,-0.211734 0.68566,2.483771 -1.22281,4.932041 -0.0156,17.650892 1.52531,16.09119 0.40376,-0.408278 5.34185,-11.094635 6.16897,-13.350116 0.34551,-0.942099 0.41042,-0.430496 0.24555,1.933899 -0.17217,2.469031 -0.71448,4.227094 -2.33693,7.577952 -2.47912,5.120227 -2.95104,7.068508 -3.50423,14.466957 -0.54112,7.23747 -2.99486,14.30431 -7.41532,21.35605 -4.37335,6.97665 -6.27922,16.89999 -4.75296,24.74756 0.32498,1.67103 0.76381,3.21731 0.97516,3.43625 0.56097,0.58097 1.93968,-0.76162 6.00441,-5.84715 3.40928,-4.26547 5.21995,-7.28266 10.17704,-16.95865 1.1375,-2.22035 2.84177,-5.11378 3.78723,-6.42978 0.94544,-1.31603 3.40644,-4.76948 5.46889,-7.67434 2.06245,-2.9049 3.8708,-5.38493 4.0186,-5.51126 2.37649,-2.03082 2.37039,-2.06904 -0.83492,-5.22657 -2.22983,-2.19658 -3.2519,-3.65716 -3.94871,-5.6428 -0.98195,-2.79815 -1.28866,-8.620714 -0.49204,-9.339826 0.26927,-0.243119 0.46497,0.943232 0.47727,2.894747 0.0336,5.312149 2.67582,10.151479 6.55112,11.998019 l 1.85457,0.88365 4.07413,-3.63929 c 4.69645,-4.1952 8.21305,-8.398642 9.09614,-10.872779 0.81983,-2.296862 1.2569,-2.186528 0.83235,0.21026 -0.64584,3.645622 -2.26488,5.990409 -7.57448,10.969589 -2.85314,2.67565 -6.24215,6.18906 -7.53111,7.80758 -4.9242,6.18328 -15.2099,21.83118 -15.2099,23.13919 0,0.68062 1.14431,-0.004 3.86228,-2.30955 6.55383,-5.56027 15.45342,-10.11082 23.2041,-11.86478 6.09713,-1.37979 12.52993,-4.33359 15.73154,-7.22357 0.73034,-0.65924 0.95851,-0.70764 0.95851,-0.20343 0,0.364 -1.36212,1.7441 -3.02693,3.06688 -1.66479,1.32278 -2.90705,2.58008 -2.76054,2.79406 0.14664,0.21381 0.0777,0.35109 -0.15306,0.30475 -0.23069,-0.0466 -0.76286,0.0486 -1.18261,0.21114 -0.41979,0.16251 -2.82382,0.82828 -5.34237,1.47939 -8.12576,2.10069 -13.85216,4.76543 -21.3694,9.94402 -4.6537,3.20589 -10.02137,8.33871 -11.55109,11.04567 -2.53152,4.47977 -7.52876,14.92861 -7.52876,15.74211 0,0.11974 1.08756,0.21528 2.41679,0.21202 1.98276,-0.005 6.33391,-0.91605 12.46549,-2.61094 1.34578,-0.37199 1.07,-1.22078 -0.61547,-1.89422 -0.8282,-0.33093 -1.85984,-1.24216 -2.29246,-2.02499 -0.71717,-1.29764 -0.71202,-1.49766 0.0585,-2.26606 1.13608,-1.13314 1.53383,-1.07341 3.5633,0.53507 1.63737,1.29767 2.54712,1.60305 4.17381,1.4009 1.15123,-0.14308 0.3562,1.06751 -1.34214,2.04361 -2.34674,1.34874 -1.99576,1.77194 1.18928,1.43403 3.76943,-0.39988 8.45983,-2.38117 13.57514,-5.73425 5.06027,-3.31696 6.21401,-3.74617 9.96147,-3.70591 3.31474,0.0356 2.63401,0.47422 -2.07568,1.33735 -2.28139,0.4181 -3.86095,1.15859 -7.11018,3.33325 -5.48988,3.67427 -9.50367,5.42964 -13.4169,5.86773 -5.3365,0.5974 -5.76076,1.44533 -1.08936,2.1773 1.74898,0.27422 5.35509,0.92613 8.01353,1.44901 9.08604,1.78713 19.12504,0.92202 25.02514,-2.15655 1.59091,-0.83007 4.51012,-3.07274 6.48716,-4.98368 3.31745,-3.20653 3.5946,-3.62902 3.5946,-5.4804 0,-1.10329 -0.58172,-3.61406 -1.29273,-5.57951 -1.5467,-4.27569 -2.11584,-8.376 -1.33178,-9.59469 0.48161,-0.74853 0.56052,-0.64257 0.57386,0.77063 0.009,0.90118 0.4909,3.17458 1.07199,5.05195 0.58105,1.87742 1.34249,4.44682 1.69204,5.70983 0.34954,1.26298 0.92428,2.29634 1.27715,2.29634 0.35289,0 1.61837,-1.70904 2.81217,-3.79788 1.1938,-2.08885 2.33738,-3.94847 2.54126,-4.13247 0.53268,-0.48084 -0.25281,2.14156 -1.05943,3.53668 -0.37483,0.64834 -0.68291,1.52572 -0.68465,1.94973 -0.004,1.052 -6.93264,9.30386 -9.98844,11.89647 -2.584,2.19232 -7.22635,5.01445 -8.24865,5.01445 -0.32531,0 -0.59147,0.30027 -0.59147,0.66726 0,0.52599 0.51167,0.61277 2.41676,0.40974 2.75613,-0.29376 5.71072,0.31818 8.19813,1.69773 2.44296,1.35486 1.74943,1.5022 -1.74693,0.3711 -2.91158,-0.94193 -3.31237,-0.95665 -11.48916,-0.42146 -5.93767,0.3886 -9.36262,0.41536 -11.44793,0.0894 -1.63655,-0.25585 -5.15063,-0.80526 -7.80909,-1.22106 -2.65844,-0.41585 -5.69947,-0.97905 -6.75787,-1.25158 -1.31544,-0.33867 -2.08949,-0.34634 -2.44637,-0.0237 -0.35688,0.32213 1.10523,1.47271 4.62102,3.63647 10.82114,6.65965 11.69254,7.06932 16.59524,7.8019 4.68416,0.69995 7.93087,1.71345 8.91384,2.78254 0.73275,0.79698 0.32911,0.77902 -1.96837,-0.0877 -1.02875,-0.38797 -3.94061,-1.02097 -6.47082,-1.40658 -5.4243,-0.82668 -9.49751,-2.42854 -15.4864,-6.09024 -5.03916,-3.08101 -10.21923,-5.08717 -14.05925,-5.44491 -2.12365,-0.19781 -3.39215,-1.4e-4 -6.16338,0.96082 -3.70856,1.28594 -10.12563,5.30595 -10.56512,6.61863 -1.29486,3.86733 -1.76444,16.6587 -0.8297,22.60143 0.25819,1.64191 0.71917,5.47404 1.02425,8.51586 0.30496,3.04185 1.06232,7.2786 1.68273,9.41503 l 1.1281,3.88444 26.26798,0.119 26.26803,0.11901 4.38396,-4.15837 c 23.11441,-21.92499 30.8776,-52.60845 20.73727,-81.96284 C 186.5078,118.76354 178.97279,107.46188 169.12858,98.24366 156.6675,86.574976 140.55377,78.54661 122.49417,75.008951 107.57956,72.087331 90.464969,72.987133 75.458675,77.481829 56.685629,83.104742 40.074649,94.384148 29.162093,108.91871 c -6.147067,8.18738 -10.170993,15.83357 -12.557136,23.8608 -2.812479,9.46149 -2.98539,10.7791 -2.986145,22.75505 -8.13e-4,12.62842 0.477726,15.76457 3.876742,25.40763 4.066234,11.53596 13.459865,25.33729 22.484233,33.03437 l 2.826957,2.4112 H 68.184183 93.561499 Z M 42.005903,185.04293 c 0.196237,-1.32069 0.72031,-2.28536 1.621747,-2.98527 1.330725,-1.03321 3.028499,-1.35787 3.499964,-0.66931 0.429953,0.62797 -1.549134,4.07032 -2.791821,4.85598 -2.058991,1.30179 -2.656088,0.99388 -2.32989,-1.2014 z m 120.583577,1.26261 c -1.32127,-0.83537 -3.20775,-3.5009 -3.20775,-4.53242 0,-0.86833 1.58981,-0.99699 3.12931,-0.25318 1.80522,0.87205 3.33314,5.47423 1.81749,5.47423 -0.35751,0 -1.14007,-0.30983 -1.73905,-0.68855 z M 35.266325,176.2495 c -2.353464,-0.76756 -2.44979,-1.38659 -0.355329,-2.28371 2.32952,-0.99782 4.026163,-0.94563 5.483417,0.16879 l 1.201154,0.91852 -1.201154,0.91852 c -1.356756,1.03753 -2.593478,1.10455 -5.128088,0.27777 z m 130.984145,-0.27775 c -0.88866,-0.88639 -0.88866,-0.95067 0,-1.83707 0.52365,-0.5223 1.5671,-0.91853 2.41875,-0.91853 1.59987,0 4.95882,1.24605 4.95882,1.83955 0,0.49836 -3.84117,1.83458 -5.2738,1.83458 -0.65058,0 -1.59724,-0.41332 -2.10377,-0.91853 z M 40.662777,152.70209 c -0.618078,-0.55789 -0.355076,-0.99888 1.186841,-1.98991 1.472191,-0.94626 3.561913,-0.93873 3.561913,0.0126 0,1.34264 -3.730851,2.89593 -4.748754,1.97711 z m 121.884953,-0.40874 c -1.70456,-1.07771 -1.20866,-2.49995 0.87171,-2.49995 0.76876,0 3.13732,2.30827 2.82964,2.75765 -0.47,0.68646 -2.42307,0.55048 -3.70135,-0.25763 z M 42.676569,145.42186 c -1.218098,-1.09954 -1.027556,-2.05835 0.40903,-2.05835 1.374754,0 2.984002,1.19941 2.690387,2.00519 -0.303794,0.83367 -2.198741,0.86617 -3.099417,0.0534 z m 118.413081,9.7e-4 c -0.41383,-0.97322 0.7314,-2.06066 2.17035,-2.06066 0.93673,0 1.20971,0.24816 1.20971,1.09903 0,1.58818 -2.77778,2.37861 -3.38006,0.96183 z M 26.185418,133.17296 c -0.807214,-0.72865 -0.794365,-2.21221 0.01891,-2.20321 1.14697,0.0126 2.011447,0.77638 1.830844,1.61738 -0.224305,1.04454 -1.05152,1.3065 -1.849926,0.58583 z m 152.203272,-0.1492 c -0.16244,-0.38211 -0.0119,-1.00213 0.33267,-1.37782 0.88688,-0.96463 2.5386,-0.87117 2.5386,0.14362 0,1.6531 -2.27708,2.63187 -2.87127,1.23418 z M 31.801245,132.01771 c -0.824278,-0.27599 -0.813847,-1.57826 0.02086,-2.6087 0.610902,-0.75417 0.706564,-0.72721 1.365998,0.38501 0.609266,1.0276 0.60632,1.28331 -0.02086,1.81627 -0.401504,0.34116 -1.016208,0.52448 -1.366,0.40742 z m 141.789195,-0.40682 c -0.48878,-0.53162 -0.4872,-0.93991 0.005,-1.91998 0.60674,-1.20207 0.65301,-1.21435 1.34679,-0.3579 0.39516,0.48781 0.71846,1.23864 0.71846,1.66853 0,1.05868 -1.30652,1.44277 -2.07277,0.60935 z M 32.172641,111.89248 c -0.353984,-0.38503 -0.513758,-0.81723 -0.355036,-0.9605 0.513564,-0.46356 2.400418,0.32449 2.400418,1.00253 0,0.86717 -1.232724,0.84186 -2.045382,-0.042 z m 140.946579,0.0601 c 0,-0.64528 1.46319,-1.40745 1.91648,-0.99828 0.13434,0.12133 0.10881,0.53957 -0.057,0.92936 -0.37538,0.88301 -1.8596,0.93801 -1.8596,0.069 z m -4.85142,-0.76413 c -0.42287,-0.61762 0.14702,-2.72952 0.73632,-2.72952 0.76229,0 1.0836,1.40231 0.53379,2.32963 -0.60096,1.01359 -0.80576,1.07809 -1.27011,0.39989 z M 37.508939,110.24979 c -0.186606,-0.53061 -0.09126,-1.1885 0.211642,-1.46198 0.684411,-0.6178 0.901435,-0.42985 1.344802,1.16473 0.269066,0.9676 0.168082,1.26205 -0.433149,1.26205 -0.431239,0 -0.93671,-0.43415 -1.123295,-0.9648 z m 30.71196,-15.896363 c -0.432876,-0.451365 -1.036526,-1.492401 -1.34143,-2.313327 -0.669205,-1.801797 -0.135128,-1.929315 2.350872,-0.561214 1.345894,0.740682 1.653938,1.179771 1.526376,2.175867 -0.191089,1.492025 -1.443994,1.837245 -2.535818,0.698674 z m 67.635441,0.230087 c -0.50075,-1.356003 0.31866,-2.779613 1.95511,-3.396821 0.932,-0.351494 1.83462,-0.639121 2.00574,-0.639121 0.55268,0 -0.3669,2.959837 -1.17716,3.788977 -0.90382,0.924913 -2.48162,1.064889 -2.78369,0.246965 z M 75.739303,93.495275 c -0.67987,-1.599285 -0.28287,-2.901829 1.168904,-3.83494 2.021164,-1.299129 2.59264,-1.195104 2.59264,0.47193 0,2.806882 -2.896921,5.396871 -3.761544,3.36301 z m 52.083217,-1.269272 c -1.86561,-3.174373 -0.48201,-4.657339 2.22918,-2.389237 1.42333,1.190682 1.75416,2.914591 0.73574,3.833861 -1.05634,0.953495 -1.75584,0.612677 -2.96492,-1.444624 z M 94.831037,86.066646 c -1.029759,-1.736816 1.423579,-5.571576 3.588167,-5.608515 2.086076,-0.03559 1.220884,4.154634 -1.169976,5.666252 -1.497607,0.946862 -1.827236,0.938989 -2.418191,-0.0577 z m 14.299523,-0.321152 c -1.64251,-1.247557 -2.38829,-2.995714 -1.88664,-4.42247 0.41178,-1.171071 1.41417,-1.109451 3.08752,0.189822 1.07904,0.837823 1.38808,1.498855 1.42754,3.053524 0.0612,2.413631 -0.60784,2.713824 -2.62842,1.179124 z"
       id="path2309" /></g></svg>
